<?xml version="1.0" encoding="UTF-8"?>
<svg version="1.1" xmlns="http://www.w3.org/2000/svg" width="400" height="367">
<path d="M0 0 C3.17456528 2.92394171 5.00668999 5.08256996 6.375 9.1875 C6.6045082 15.72848361 6.6045082 15.72848361 5.375 18.1875 C6.365 17.6925 6.365 17.6925 7.375 17.1875 C18.92117319 16.40752595 29.66680077 16.5237852 39.25 23.875 C44.05708135 28.48516476 47.58743619 33.98209958 47.9375 40.75 C47.37370538 49.28110285 42.49748139 54.68414594 36.375 60.1875 C37.014375 60.496875 37.65375 60.80625 38.3125 61.125 C40.375 62.1875 40.375 62.1875 41.375 63.1875 C41.92620767 67.13782162 41.59166273 68.8450331 39.4375 72.25 C36.08933081 75.91750324 31.78022841 78.01847686 27.375 80.1875 C27.4052124 81.33524902 27.4354248 82.48299805 27.46655273 83.66552734 C27.46600563 88.09521826 26.75656448 92.20503314 25.91015625 96.5390625 C24.36226107 105.12695603 23.91844214 113.50461605 23.83679199 122.21615601 C23.79499912 126.2528959 23.69890794 130.28839579 23.60546875 134.32421875 C23.58791534 135.10547623 23.57036194 135.8867337 23.55227661 136.69166565 C22.89239239 164.26455789 16.79474841 193.00911978 -3.625 213.1875 C-5.69996461 214.84594317 -7.80749566 216.40961603 -9.98828125 217.92578125 C-11.76612337 219.10696343 -11.76612337 219.10696343 -12.625 221.1875 C-11.82707031 221.2803125 -11.02914062 221.373125 -10.20703125 221.46875 C-5.66912541 222.37930035 -1.59449033 223.95657032 2.6875 225.6875 C3.56325684 226.04134766 4.43901367 226.39519531 5.34130859 226.75976562 C21.1733431 233.29516537 37.79091235 240.57392325 46.375 256.1875 C47.00019531 257.31800781 47.62539063 258.44851563 48.26953125 259.61328125 C56.38374389 274.81372352 67.375 297.77664931 67.375 315.1875 C-25.025 315.1875 -117.425 315.1875 -212.625 315.1875 C-211.305 309.2475 -209.985 303.3075 -208.625 297.1875 C-206.67939449 287.81252187 -206.67939449 287.81252187 -204.77319336 278.42944336 C-197.77643184 243.56067352 -197.77643184 243.56067352 -185.625 233.1875 C-185.14804688 232.72085938 -184.67109375 232.25421875 -184.1796875 231.7734375 C-175.4030451 223.50558597 -163.4349352 219.82579694 -152.25 216 C-149.80346416 215.15588109 -147.35810516 214.30834189 -144.9140625 213.45703125 C-143.31618896 212.90946167 -143.31618896 212.90946167 -141.68603516 212.35083008 C-136.86480986 210.51854913 -132.59728612 208.28334501 -128.4375 205.25 C-124.92162532 202.79247535 -121.81197014 201.57658796 -117.6875 200.4375 C-113.88823553 199.1961147 -113.88823553 199.1961147 -111.484375 196.2109375 C-110.86494305 193.49428593 -110.71626381 190.97287155 -110.625 188.1875 C-110.40650391 186.48013672 -110.40650391 186.48013672 -110.18359375 184.73828125 C-109.56286953 177.76119392 -109.56286953 177.76119392 -112.54296875 171.6796875 C-114.26283863 170.19180007 -116.03074789 168.75813119 -117.8359375 167.375 C-134.95986741 153.94446674 -147.9003596 127.4790198 -150.625 106.1875 C-151.4258696 92.88074355 -150.49045923 78.46400022 -142.625 67.1875 C-139.63293908 64.04583603 -136.52623888 61.13811944 -132.625 59.1875 C-132.27476684 57.11603549 -132.02199963 55.02789192 -131.8125 52.9375 C-129.92335905 38.8548129 -124.93388217 29.34531092 -114.171875 20.07421875 C-111.63964653 18.19835011 -109.24112925 16.86147671 -106.375 15.5625 C-105.50359375 15.15773438 -104.6321875 14.75296875 -103.734375 14.3359375 C-96.82743033 11.78488005 -90.50618365 11.04201488 -83.16430664 11.06323242 C-70.45250101 11.06023081 -60.11428967 8.56938957 -48.25390625 4.1953125 C-43.11170963 2.3000332 -37.98101264 0.89357042 -32.625 -0.25 C-31.92576416 -0.40122314 -31.22652832 -0.55244629 -30.50610352 -0.70825195 C-8.30905062 -5.27624714 -8.30905062 -5.27624714 0 0 Z " fill="#000000" transform="translate(250.625,51.8125)"/>
<path d="M0 0 C3.84637334 1.0508262 7.48025313 1.74298365 11.47216797 1.74951172 C12.24109375 1.75080078 13.01001953 1.75208984 13.80224609 1.75341797 C14.59179688 1.74955078 15.38134766 1.74568359 16.19482422 1.74169922 C17.37334961 1.7475 17.37334961 1.7475 18.57568359 1.75341797 C22.91489597 1.74615569 26.98489964 1.48078509 31.25732422 0.61669922 C34.48978153 10.21786706 35.53640145 19.65492615 33.25732422 29.61669922 C31.86513672 28.65763672 31.86513672 28.65763672 30.44482422 27.67919922 C26.48108187 25.11442476 23.82057162 24.46326216 19.19482422 24.42919922 C18.31697266 24.41501953 17.43912109 24.40083984 16.53466797 24.38623047 C14.05807367 24.39440486 14.05807367 24.39440486 12.25732422 26.61669922 C12.25732422 28.26669922 12.25732422 29.91669922 12.25732422 31.61669922 C19.18732422 31.94669922 26.11732422 32.27669922 33.25732422 32.61669922 C33.28043 37.96953796 33.30029793 43.32219973 33.31225586 48.67504883 C33.31724733 50.49146108 33.32404285 52.3078694 33.33276367 54.12426758 C33.46533189 82.47047084 29.4026142 106.93508674 11.25732422 129.61669922 C10.76748047 130.27025391 10.27763672 130.92380859 9.77294922 131.59716797 C2.81602762 140.44965528 -7.73198296 146.43105607 -18.74267578 148.61669922 C-38.12282933 150.01637698 -55.30213804 141.77389841 -70.74267578 130.61669922 C-70.74267578 129.95669922 -70.74267578 129.29669922 -70.74267578 128.61669922 C-72.06267578 128.28669922 -73.38267578 127.95669922 -74.74267578 127.61669922 C-74.74267578 128.27669922 -74.74267578 128.93669922 -74.74267578 129.61669922 C-74.15260742 129.88909424 -73.56253906 130.16148926 -72.95458984 130.44213867 C-70.79487171 131.58898237 -69.18249662 132.79941618 -67.35205078 134.40966797 C-66.72951416 134.95405518 -66.10697754 135.49844238 -65.46557617 136.05932617 C-64.48899048 136.92303833 -64.48899048 136.92303833 -63.49267578 137.80419922 C-62.81519287 138.39354248 -62.13770996 138.98288574 -61.43969727 139.59008789 C-58.75583386 141.92970892 -56.09975488 144.27040226 -53.54345703 146.74951172 C-44.69481945 155.29988061 -32.93685436 160.26501444 -20.79541016 161.51806641 C-18.87548828 161.75341797 -18.87548828 161.75341797 -15.74267578 162.61669922 C-14.48486328 165.13623047 -14.48486328 165.13623047 -13.74267578 167.61669922 C-12.75267578 167.94669922 -11.76267578 168.27669922 -10.74267578 168.61669922 C-10.63383982 170.99295099 -10.55500882 173.36413898 -10.49267578 175.74169922 C-10.45916016 176.40685547 -10.42564453 177.07201172 -10.39111328 177.75732422 C-10.290189 182.90446236 -11.51111192 185.67023904 -14.74267578 189.61669922 C-22.3698786 195.49600139 -30.44275748 195.50192342 -39.74267578 194.61669922 C-60.25320142 191.51612007 -77.63049495 180.86313188 -89.93481445 164.19750977 C-92.8110203 160.1712511 -95.50418387 156.09171872 -97.89892578 151.75732422 C-99.3884592 148.56675713 -99.3884592 148.56675713 -101.74267578 147.61669922 C-96.5440027 157.41183503 -91.24526665 166.35709017 -83.74267578 174.61669922 C-83.12005859 175.33212891 -82.49744141 176.04755859 -81.85595703 176.78466797 C-70.68413281 188.89333279 -52.10736537 197.695574 -35.62548828 198.83154297 C-27.38775552 199.06935281 -20.32067824 198.65022304 -13.86767578 193.17919922 C-13.16642578 192.33357422 -12.46517578 191.48794922 -11.74267578 190.61669922 C-11.21287109 190.08044922 -10.68306641 189.54419922 -10.13720703 188.99169922 C-8.07483657 185.47931478 -8.25618651 182.01416504 -8.30517578 178.05419922 C-8.30839844 177.25079102 -8.31162109 176.44738281 -8.31494141 175.61962891 C-8.44967847 169.84219639 -9.52314876 165.15357612 -11.85205078 159.83154297 C-12.98014208 157.02615803 -13.06591593 154.60667058 -12.74267578 151.61669922 C-10.1237953 151.98436063 -8.97360805 152.36882815 -7.14501953 154.33154297 C-0.31881502 164.68917062 2.36602845 176.25156725 1.25732422 188.61669922 C-0.90419542 197.01608259 -5.01851496 203.03580838 -12.30517578 207.80419922 C-24.4715148 214.65113447 -38.19503299 215.41252705 -51.55517578 211.86669922 C-57.19966818 210.20072933 -62.51374824 208.31182703 -67.74267578 205.61669922 C-68.56638672 205.20935547 -69.39009766 204.80201172 -70.23876953 204.38232422 C-89.95053918 194.19743308 -107.16984982 179.30519884 -117.74267578 159.61669922 C-118.08298828 159.00181641 -118.42330078 158.38693359 -118.77392578 157.75341797 C-121.0737936 153.12173971 -121.53019251 148.66607119 -120.74267578 143.61669922 C-117.84311537 137.0267892 -111.05416584 132.77244425 -104.74267578 129.61669922 C-102.74307566 129.57670722 -100.74220336 129.57323123 -98.74267578 129.61669922 C-98.95923828 130.38755859 -99.17580078 131.15841797 -99.39892578 131.95263672 C-99.67736328 132.95552734 -99.95580078 133.95841797 -100.24267578 134.99169922 C-100.66033203 136.48830078 -100.66033203 136.48830078 -101.08642578 138.01513672 C-101.82420594 140.49273198 -101.82420594 140.49273198 -101.74267578 142.61669922 C-94.57711495 130.74920854 -93.2455315 118.20167438 -92.30517578 104.55419922 C-92.18053955 103.29333496 -92.05590332 102.0324707 -91.92749023 100.73339844 C-91.74506885 97.0509975 -91.7301297 94.1664824 -92.74267578 90.61669922 C-96.02697526 87.38367952 -99.6439877 85.63215192 -103.74267578 83.61669922 C-109.6310068 79.05440587 -112.99500984 73.88657588 -114.74267578 66.61669922 C-115.67859375 59.13900408 -115.21892413 52.83977619 -110.74267578 46.61669922 C-108.83835414 44.35972542 -107.66181576 43.76048547 -104.77001953 43.30810547 C-99.05088007 42.98438059 -94.26913861 44.00122262 -89.74267578 47.61669922 C-87.44586552 50.46200149 -85.53774414 53.43453259 -83.74267578 56.61669922 C-84.31007446 52.48696294 -84.31007446 52.48696294 -85.74267578 48.61669922 C-87.15219887 31.43333143 -85.50460398 16.63528048 -74.74267578 2.61669922 C-54.67280048 -17.38432574 -23.60708969 -7.06958329 0 0 Z " fill="#FCFCFC" transform="translate(237.74267578125,124.38330078125)"/>
<path d="M0 0 C4.86647519 1.17737303 8.5912939 3.42102626 12.875 5.9375 C17.38529936 8.19264968 21.91082676 8.5265227 26.875 8.9375 C26.875 9.9275 26.875 10.9175 26.875 11.9375 C26.215 11.9375 25.555 11.9375 24.875 11.9375 C24.648125 12.659375 24.42125 13.38125 24.1875 14.125 C22.31317234 18.14141642 19.6108215 20.72242495 16 23.25 C12.05097404 24.52762605 8.63159968 24.73207406 4.78515625 22.9921875 C-0.00364581 20.15636058 -3.59562985 16.9962403 -6.125 11.9375 C-6.27101706 10.27515189 -6.34589834 8.60599493 -6.375 6.9375 C-6.40078125 6.050625 -6.4265625 5.16375 -6.453125 4.25 C-6.34484375 3.486875 -6.2365625 2.72375 -6.125 1.9375 C-3.125 -0.0625 -3.125 -0.0625 0 0 Z " fill="#090909" transform="translate(210.125,213.0625)"/>
<path d="M0 0 C4.06856733 1.49151384 5.20954985 3.68183663 7.1875 7.4375 C16.61048662 24.16280109 31.24274552 37.67934295 49.85644531 43.26269531 C59.74352325 45.97918472 71.16775352 48.50907434 81.125 44.8125 C84.83509955 42.47352419 88.0109387 39.9781226 90 36 C90.23748258 32.65765254 90.38271372 29.31649463 90.5234375 25.96875 C90.68070312 24.9890625 90.83796875 24.009375 91 23 C91.99 22.34 92.98 21.68 94 21 C95.03292235 38.90398741 95.03292235 38.90398741 91.3125 43.9375 C85.17630472 50.26007504 78.39522674 52.08690862 69.8125 52.3125 C49.19730204 51.88986496 30.48804705 41.31326405 16.41796875 26.7734375 C0 7.94184168 0 7.94184168 0 0 Z " fill="#181818" transform="translate(136,272)"/>
<path d="M0 0 C1.11955078 -0.04930664 1.11955078 -0.04930664 2.26171875 -0.09960938 C6.42199563 -0.14010765 8.10087383 0.15176195 11.59375 2.65234375 C13.5 5.4375 13.5 5.4375 13.3125 8.25 C13.044375 8.971875 12.77625 9.69375 12.5 10.4375 C-15.07681564 10.69231657 -15.07681564 10.69231657 -18.25 7.89453125 C-18.6625 7.41371094 -19.075 6.93289062 -19.5 6.4375 C-12.79807392 1.76173762 -8.04801456 0.06254934 0 0 Z " fill="#090909" transform="translate(207.5,144.5625)"/>
<path d="M0 0 C0.66 0.33 1.32 0.66 2 1 C2 1.66 2 2.32 2 3 C2.99 2.34 3.98 1.68 5 1 C7.375 0.734375 7.375 0.734375 10 0.75 C10.86625 0.74484375 11.7325 0.7396875 12.625 0.734375 C15 1 15 1 18 3 C18 3.66 18 4.32 18 5 C13.38 5 8.76 5 4 5 C4.81855114 10.27224612 4.81855114 10.27224612 6.6640625 14.83984375 C6.98117188 15.51080078 7.29828125 16.18175781 7.625 16.87304688 C8.29162969 18.24927263 8.96613025 19.62171354 9.6484375 20.99023438 C11.85838765 25.71354996 12.38383963 28.77712139 11 34 C7.96437901 38.51006547 5.1007511 41.08721834 0 43 C-2.875 43.1875 -2.875 43.1875 -5 43 C-5 42.34 -5 41.68 -5 41 C1.75 37 1.75 37 4 37 C6.50202148 31.11289063 6.20690232 26.32151688 4.0703125 20.44140625 C3.38163729 18.74987918 2.67222501 17.06657089 1.9375 15.39453125 C-0.08854543 10.21967354 -0.09281184 5.47589865 0 0 Z " fill="#1C1C1C" transform="translate(244,169)"/>
<path d="M0 0 C2.61593153 1.83115207 2.96989455 2.90968366 4 6 C4.06792065 8.74229621 3.99793463 11.46871611 3.9375 14.2109375 C3.99847425 16.93191355 4.38435687 19.35465842 5 22 C1.83884224 20.63016497 1.0072908 20.0109362 -1 17 C-1.4140625 14.30078125 -1.4140625 14.30078125 -1.625 11.3125 C-1.73714844 9.82169922 -1.73714844 9.82169922 -1.8515625 8.30078125 C-1.90054688 7.54152344 -1.94953125 6.78226563 -2 6 C-3.65 5.67 -5.3 5.34 -7 5 C-7.66 6.32 -8.32 7.64 -9 9 C-9.66 9 -10.32 9 -11 9 C-10.6875 5.625 -10.6875 5.625 -10 2 C-6.30513897 -0.46324069 -4.36706908 -0.38991688 0 0 Z " fill="#101010" transform="translate(141,177)"/>
<path d="M0 0 C1.43269493 0.96307047 2.79651566 2.02705628 4.14453125 3.10546875 C1.367292 3.8923532 -1.08156952 4.22496799 -3.96484375 4.203125 C-4.71894531 4.19990234 -5.47304687 4.19667969 -6.25 4.19335938 C-7.02730469 4.18498047 -7.80460938 4.17660156 -8.60546875 4.16796875 C-9.39824219 4.16345703 -10.19101563 4.15894531 -11.0078125 4.15429688 C-12.95706383 4.1425544 -14.90627613 4.12462021 -16.85546875 4.10546875 C-12.35141867 -0.70920548 -6.3395109 -3.05631157 0 0 Z " fill="#1C1C1C" transform="translate(207.85546875,166.89453125)"/>
<path d="M0 0 C3.28426103 1.05565533 4.57151556 2.61660352 6.25 5.5 C8 9 8 9 8 11 C7.01 11 6.02 11 5 11 C4.16151196 9.54462432 3.32936066 8.08559627 2.5 6.625 C1.80390625 5.40683594 1.80390625 5.40683594 1.09375 4.1640625 C0 2 0 2 0 0 Z " fill="#272727" transform="translate(136,272)"/>
<path d="M0 0 C7.38461538 -0.36923077 7.38461538 -0.36923077 10.5 1.5 C10.995 1.995 11.49 2.49 12 3 C11.67 3.33 11.34 3.66 11 4 C3.67510549 3.52742616 3.67510549 3.52742616 1 1.4375 C0.67 0.963125 0.34 0.48875 0 0 Z " fill="#E4E4E4" transform="translate(212,229)"/>
<path d="M0 0 C1 3 1 3 0.29296875 4.7890625 C-0.07183594 5.39492188 -0.43664062 6.00078125 -0.8125 6.625 C-1.16957031 7.23601562 -1.52664062 7.84703125 -1.89453125 8.4765625 C-3 10 -3 10 -5 11 C-4.55123384 9.35153231 -4.09069512 7.70626545 -3.625 6.0625 C-3.36976563 5.14597656 -3.11453125 4.22945313 -2.8515625 3.28515625 C-2 1 -2 1 0 0 Z " fill="#0F0F0F" transform="translate(139,258)"/>
<path d="M0 0 C6.625 -0.25 6.625 -0.25 10 2 C10 2.66 10 3.32 10 4 C6.37 3.34 2.74 2.68 -1 2 C-0.67 1.34 -0.34 0.68 0 0 Z " fill="#0D0D0D" transform="translate(252,170)"/>
<path d="M0 0 C1.32 0.33 2.64 0.66 4 1 C4 1.66 4 2.32 4 3 C5.32 3.66 6.64 4.32 8 5 C7.34 5.66 6.68 6.32 6 7 C3.95880212 5.38405168 1.95927063 3.7143618 0 2 C0 1.34 0 0.68 0 0 Z " fill="#2E2E2E" transform="translate(163,252)"/>
</svg>
